<?xml version="1.0" encoding="utf-8"?>
<!-- Generator: Adobe Illustrator 16.0.0, SVG Export Plug-In . SVG Version: 6.00 Build 0)  -->
<!DOCTYPE svg PUBLIC "-//W3C//DTD SVG 1.1//EN" "http://www.w3.org/Graphics/SVG/1.1/DTD/svg11.dtd">
<svg version="1.1" id="Layer_1" xmlns="http://www.w3.org/2000/svg" xmlns:xlink="http://www.w3.org/1999/xlink" x="0px" y="0px"
	 width="2160px" height="720px" viewBox="0 0 2160 720" enable-background="new 0 0 2160 720" xml:space="preserve">
<linearGradient id="SVGID_1_" gradientUnits="userSpaceOnUse" x1="349.9336" y1="1831.1455" x2="407.9025" y2="1889.1145" gradientTransform="matrix(3.5339 0 0 -3.5339 -218.0195 6751.9355)">
	<stop  offset="0.05" style="stop-color:#078282"/>
	<stop  offset="0.21" style="stop-color:#0B997D"/>
	<stop  offset="0.41" style="stop-color:#0BAF7A"/>
	<stop  offset="0.6" style="stop-color:#29B677"/>
	<stop  offset="0.77" style="stop-color:#34B777"/>
</linearGradient>
<path fill="url(#SVGID_1_)" d="M1219.572,72.578c-10.602,1.592-79.973,9.012-131.107,21.77
	c-72.869,18.164-71.561,78.982-71.561,103.012v81.244c0,1.238,0.919,1.273,1.555,0.461c30.403-40.443,64.874-77.662,102.872-111.07
	c0,0,0.283-0.283-0.213,0c-21.736,6.814-42.72,15.838-62.62,26.928v-10.318c-0.282-41.418,24.1-52.584,53.008-60.678
	c23.678-6.572,67.922-10.354,67.922-10.354s-3.535,25.797-8.305,78.346c-3.252,38.271-31.416,46.754-70.785,46.754h-22.122
	c-17.669,25.443-20.037,40.781-20.037,40.781h43.362c82.586,0,101.068-36.4,104.955-90.256
	c4.947-68.451,11.875-108.137,13.924-115.629c0.121-0.412-0.115-0.844-0.527-0.965C1219.789,72.572,1219.68,72.564,1219.572,72.578z
	"/>
<g>
	<path fill="#FFFFFF" d="M1915.746,375.967c0-27.106-6.254-48.204-18.553-62.692c-12.297-14.488-30.957-22.016-54.986-22.016
		c-24.031,0-43.221,7.633-56.543,22.617c-13.322,14.982-19.859,36.893-19.859,65.305c-0.541,16.088,3.178,32.033,10.777,46.225
		c6.684,11.943,16.822,21.59,29.084,27.67c12.625,5.979,26.459,8.965,40.428,8.729c10.525,0.152,21.021-1.191,31.168-3.994
		c9.127-2.699,17.738-6.902,25.48-12.439c2.137-1.455,3.451-3.846,3.533-6.432c-0.039-1.646-0.412-3.27-1.096-4.77l-6.572-13.711
		c-1.555-4.135-4.24-4.736-5.654-4.736c-1.684,0.121-3.293,0.736-4.629,1.768c-11.197,7.434-24.373,11.324-37.813,11.166
		c-14.383,0-25.691-3.533-33.572-10.602c-7.604-7.285-11.861-17.387-11.768-27.918h98.947c4.383-0.035,11.662-1.873,11.662-14.205
		L1915.746,375.967z M1805.137,360.523c0.006-9.645,3.408-18.979,9.611-26.363c6.361-7.066,15.654-10.602,27.705-10.602
		s20.744,3.535,26.504,10.318c5.873,7.67,8.986,17.096,8.836,26.752L1805.137,360.523z M1678.799,291.259
		c-24.207,0-43.219,7.633-56.541,22.617c-13.322,14.982-19.861,36.893-19.861,65.305c-0.537,16.088,3.182,32.033,10.779,46.225
		c6.686,11.941,16.822,21.588,29.084,27.67c12.568,5.965,26.34,8.963,40.25,8.764c10.527,0.152,21.021-1.191,31.17-3.994
		c9.125-2.701,17.736-6.904,25.479-12.439c2.139-1.455,3.451-3.846,3.533-6.432c-0.035-1.646-0.408-3.271-1.094-4.77l-6.574-13.711
		c-1.555-4.135-4.24-4.736-5.654-4.736c-1.684,0.121-3.293,0.736-4.629,1.768c-11.197,7.434-24.373,11.326-37.813,11.166
		c-14.383,0-25.691-3.533-33.572-10.602c-7.604-7.285-11.861-17.387-11.768-27.918h98.949c4.381,0,11.662-1.836,11.662-14.135
		c0-27.106-6.256-48.202-18.555-62.692c-12.297-14.488-30.744-22.086-54.773-22.086H1678.799z M1714.314,360.523h-72.586
		c0.01-9.645,3.412-18.977,9.613-26.363c6.361-7.066,15.654-10.602,27.705-10.602s20.744,3.535,26.504,10.318
		c5.813,7.654,8.887,17.037,8.729,26.646H1714.314z M1608.299,307.408c0.463-1.615,0.463-3.33,0-4.947
		c-0.541-1.707-1.619-3.195-3.074-4.24c-5.938-4.523-24.313-5.441-28.908-5.441c-3.533,0-16.326,0.354-41.486,7.881
		c-1.205-2.242-3.572-3.609-6.115-3.535h-18.445c-3.059-0.381-6.105,0.785-8.129,3.111c-1.475,2.557-2.141,5.502-1.908,8.445
		v133.758c-0.246,3.801,0.883,7.563,3.182,10.602l0.352,0.354c2.629,2.488,6.178,3.77,9.789,3.533h14.418
		c3.889,0.355,7.723-1.105,10.391-3.957c2.193-3.082,3.256-6.828,3.004-10.604V332.818c10.012-3.199,20.416-5.008,30.922-5.371
		c1.412,0,2.721,0,4.1,0.176c4.178,0.195,8.264,1.293,11.979,3.217l2.686,0.813h0.602c2.813-0.004,5.199-2.061,5.619-4.842
		l10.602-19.438L1608.299,307.408z M1482.281,299.988c-2.447-2.66-6.027-3.975-9.613-3.533h-28.271v-41.1
		c0.232-3.523-0.699-7.023-2.65-9.967c-2.305-2.715-5.779-4.15-9.328-3.852h-17.211c-3.557-0.295-7.035,1.154-9.33,3.889
		c-1.953,2.939-2.885,6.441-2.65,9.965v146.797c0,47.85,29.58,57.814,45.023,59.723c4.453,0.566,8.521-2.584,9.088-7.037
		c0.043-0.338,0.064-0.68,0.064-1.02v-21.91c-0.055-2.982-1.736-5.693-4.383-7.068c-1.818-0.986-3.418-2.334-4.699-3.957
		c-2.969-3.535-3.959-10.602-3.959-19.932V332.5h28.271c3.533,0.422,7.064-0.805,9.576-3.322c1.889-3.041,2.732-6.613,2.404-10.178
		v-8.764C1484.916,306.66,1484.102,303.08,1482.281,299.988L1482.281,299.988z M1353.012,297.513
		c-11.682-3.943-23.928-5.961-36.258-5.971c-26.752,0-47.566,7.633-61.844,22.723s-21.451,36.752-21.451,64.563
		c0,24.561,6.08,43.928,18.023,57.533c11.945,13.605,29.049,20.707,50.535,20.707c9.002,0.221,17.951-1.465,26.256-4.947
		c5.156-2.344,9.877-5.545,13.959-9.471c-0.707,11.732-3.357,20.355-7.703,25.621c-5.16,6.184-13.57,9.33-25.02,9.33
		c-10.283,0.01-20.5-1.648-30.25-4.912c-2.92-1.057-6.141,0.455-7.195,3.373c-0.203,0.563-0.316,1.152-0.332,1.75l-0.707,23.678
		c-0.098,2.629,1.654,4.971,4.205,5.619c12.18,3.203,24.691,4.98,37.283,5.301c24.135,0,42.158-7.916,53.607-23.5
		c11.451-15.586,16.963-36.576,16.963-63.15V310.943c-9.758-5.027-19.799-9.488-30.072-13.357V297.513z M1342.41,332.041v55.834
		c0.52,8.992-2.689,17.799-8.871,24.35c-6.248,5.939-14.639,9.09-23.252,8.729c-12.193,0-21.203-3.535-27.211-10.602
		c-6.008-7.068-9.082-18.73-9.082-33.926c0-33.149,13.428-49.262,40.992-49.262c5.492-0.023,10.973,0.498,16.361,1.555
		c3.832,0.648,7.572,1.764,11.133,3.322H1342.41z M1164.867,291.578c-15.129-0.115-30.188,2.055-44.668,6.432l-7.527,1.943
		c-1.215-2.266-3.617-3.637-6.184-3.535h-18.447c-3.059-0.379-6.105,0.785-8.128,3.111c-1.478,2.557-2.143,5.502-1.908,8.445
		v134.995c-0.246,3.801,0.883,7.564,3.181,10.602c2.648,2.762,6.396,4.189,10.213,3.887h14.418
		c3.889,0.355,7.723-1.105,10.389-3.957c2.191-3.082,3.254-6.828,3.004-10.602V332.5c10.996-3.197,22.342-5.025,33.785-5.443
		c8.375,0,14.488,1.945,18.021,5.762c3.535,3.816,5.479,10.777,5.479,20.566v89.655c-0.25,3.803,0.879,7.566,3.18,10.602
		c2.648,2.762,6.398,4.189,10.213,3.889h14.701c3.801,0.318,7.535-1.145,10.107-3.959c2.191-3.082,3.252-6.828,3.004-10.602v-92.235
		c0-19.436-4.877-34.279-14.488-44.174c-10.131-10.121-24.035-15.541-38.344-14.947V291.578z M1044.645,296.455h-14.418
		c-3.804-0.291-7.537,1.135-10.178,3.887c-2.329,3.143-3.457,7.016-3.181,10.92v131.708c-0.247,3.801,0.882,7.564,3.181,10.602
		c2.646,2.766,6.396,4.193,10.213,3.887h14.418c3.889,0.355,7.723-1.105,10.39-3.957c2.179-3.088,3.228-6.832,2.968-10.602V311.226
		c0.273-3.902-0.854-7.775-3.18-10.92c-2.649-2.762-6.398-4.189-10.213-3.889V296.455z M993.227,228.781
		c-12.016,5.301-36.93,25.973-36.93,31.273v42.406c-9.258-7.527-22.475-11.309-39.332-11.309
		c-13.233-0.285-26.236,3.502-37.247,10.85c-10.785,7.584-19.164,18.109-24.136,30.32c-5.729,13.949-8.544,28.922-8.27,43.999
		c0,56.895,27.458,85.695,81.633,85.695c12.854,0.021,25.627-2.055,37.813-6.148c10.341-3.912,20.432-8.455,30.215-13.605V232.703
		c0.028-0.949-0.285-1.877-0.884-2.615c-0.707-0.813-1.838-1.768-2.827-1.271L993.227,228.781z M956.297,356v64.53
		c-8.049,4.596-17.246,6.791-26.504,6.324c-14.136,0-24.737-3.816-31.451-11.307c-6.715-7.492-10.354-20.498-10.354-38.238
		c0-15.902,3.181-28.553,9.471-37.53s15.443-13.074,27.918-13.074c8.18-0.361,16.21,2.277,22.581,7.42
		c5.478,4.771,8.305,12.121,8.305,21.699L956.297,356z M778.827,291.578c-15.129-0.115-30.188,2.053-44.669,6.432l-0.883,0.246
		l-6.644,1.697c-1.203-2.277-3.612-3.654-6.185-3.535h-18.482c-3.058-0.379-6.104,0.785-8.128,3.111
		c-1.479,2.555-2.146,5.502-1.908,8.445v134.995c-0.247,3.801,0.882,7.564,3.181,10.602c2.646,2.766,6.396,4.193,10.213,3.887
		h14.418c3.889,0.355,7.723-1.105,10.39-3.957c2.191-3.084,3.253-6.828,3.004-10.602V332.5c10.994-3.197,22.342-5.025,33.784-5.443
		c8.375,0,14.488,1.945,18.022,5.762s5.478,10.602,5.478,20.566v89.655c-0.247,3.801,0.882,7.564,3.181,10.602
		c2.648,2.762,6.397,4.189,10.213,3.889h14.701c3.8,0.318,7.533-1.145,10.106-3.959c2.194-3.082,3.256-6.826,3.004-10.602v-92.235
		c0-19.436-4.877-34.279-14.489-44.174c-10.122-10.111-24.011-15.531-38.307-14.947V291.578z M602.556,291.224
		c-24.207,0-43.219,7.633-56.542,22.615c-13.323,14.984-19.79,36.895-19.79,65.307c-0.537,16.088,3.181,32.033,10.779,46.223
		c6.687,11.943,16.823,21.588,29.083,27.672c12.599,5.992,26.407,9.004,40.356,8.799c10.527,0.154,21.021-1.191,31.17-3.994
		c9.125-2.701,17.736-6.904,25.479-12.439c2.139-1.455,3.452-3.846,3.534-6.432c-0.04-1.646-0.413-3.27-1.096-4.77l-6.573-13.711
		c-1.59-4.135-4.24-4.736-5.654-4.736c-1.683,0.121-3.293,0.736-4.629,1.768c-11.197,7.434-24.373,11.326-37.813,11.166
		c-14.383,0-25.691-3.533-33.572-10.602c-7.605-7.283-11.864-17.387-11.768-27.918h98.949c4.382,0,11.662-1.836,11.662-14.135
		c0-27.282-6.221-48.274-18.447-62.622c-12.228-14.348-31.099-22.156-55.129-22.156V291.224z M638.249,360.488h-72.798
		c0.006-9.645,3.409-18.979,9.611-26.363c6.361-7.068,15.656-10.602,27.706-10.602c12.051,0,20.744,3.533,26.505,10.318
		c5.861,7.637,8.986,17.021,8.869,26.646H638.249z M1947.197,303.167c-1.43-2.598-3.576-4.732-6.184-6.148
		c-5.117-2.857-11.35-2.857-16.469,0c-2.619,1.41-4.777,3.545-6.219,6.148c-2.979,5.174-2.979,11.543,0,16.717
		c1.436,2.604,3.58,4.748,6.184,6.184c5.156,2.951,11.49,2.951,16.645,0c2.604-1.438,4.748-3.58,6.186-6.184
		c2.979-5.174,2.979-11.543,0-16.717H1947.197z M1944.371,318.257c-1.154,2.09-2.867,3.814-4.947,4.982
		c-4.133,2.387-9.225,2.387-13.359,0c-2.082-1.164-3.797-2.891-4.947-4.982c-2.404-4.166-2.404-9.299,0-13.463
		c1.156-2.092,2.885-3.809,4.984-4.949c4.105-2.297,9.109-2.297,13.217,0c2.1,1.139,3.828,2.855,4.982,4.949
		c2.412,4.162,2.412,9.299,0,13.463H1944.371z M1938.576,316.597c-0.707-1.225-1.131-1.932-1.273-2.121
		c-0.342-0.486-0.732-0.936-1.166-1.342c-0.363-0.275-0.77-0.49-1.201-0.637c1.34-0.111,2.594-0.699,3.533-1.66
		c0.809-0.861,1.252-2.002,1.238-3.182c0.012-0.867-0.207-1.721-0.637-2.473c-0.379-0.693-0.941-1.268-1.625-1.662
		c-0.85-0.422-1.775-0.662-2.723-0.707h-9.01v17.316h3.533v-7.068h0.637c0.873-0.035,1.732,0.227,2.438,0.742
		c1.025,1.018,1.852,2.217,2.439,3.535l1.412,2.826h4.242L1938.576,316.597z M1934.264,309.882
		c-1.248,0.223-2.516,0.305-3.781,0.248h-1.414v-4.594h1.414c1.254-0.061,2.512,0.023,3.746,0.246
		c0.467,0.139,0.875,0.424,1.166,0.813c0.275,0.367,0.424,0.814,0.424,1.273c0.01,0.992-0.639,1.871-1.59,2.154L1934.264,309.882z"
		/>
	<g>
		<path fill="#FFFFFF" d="M359.452,350.717l-3.18,161.138c0,0,13.073,9.387,46.64,0V421.9l-3.533-47.24
			c0,0-3.181-16.824,7.066-27.826L385.952,314.8C385.952,314.8,365.105,325.478,359.452,350.717z"/>
		<path fill="#FFFFFF" d="M403.445,351.171c0,0-15.899,52.926,31.092,59.342c0,0,32.506,2.406,36.746-38.494
			c0,0-1.529-37.688-35.215-38.491l16.136-40.097c0,0,37.099,7.618,55.825,48.114c0,0,13.072,42.922-6.359,74.991
			c0,0-21.906,40.086-69.252,37.279c0,0-34.979-2.004-48.053-21.252v-81.395L403.445,351.171z"/>
		<path fill="#FFFFFF" d="M402.756,353.876c0,0,11.171-20.346,33.312-20.348c0,0,12.641,1.146,22.161,8.391l6.349-44.102
			c0,0-46.07-25.395-91.761,23.001L402.756,353.876z"/>
		<path fill="#FFFFFF" d="M390.986,305.182c0,0-32.747,19.255-33.247,54.755l-0.067,81.004l28.067-43.754l-1.374-57L390.986,305.182
			z"/>
		<path fill="#FFFFFF" d="M356.679,491.191c0,0-5.19,31.746,9.81,32.246h19.5c0,0,19.095,3.004,16.923-16.123l-23.465-24.627
			L356.679,491.191z"/>
	</g>
	<path fill="#FFFFFF" d="M357.671,410.818v-71.315c0,0,8.411-10.565,14.127-16.985l2.53,16.333L357.671,410.818z"/>
	<path fill="#FFFFFF" d="M274.139,462.869c-27.454,0-51.284-9.52-60.712-24.246c-5.871-9.166-2.835-21.199,6.764-26.822
		c3.234-1.9,6.946-2.904,10.73-2.904c7.059,0,13.515,3.369,17.308,9.023c2.562,2.51,13.575,5.936,26.141,5.936
		c6.679,0,12.74-0.949,18.019-2.824c10.111-3.594,11.504-8.586,11.504-13.447c0-4.613-10.928-7.938-31.096-12.461
		c-24.839-5.572-62.37-13.992-62.37-50.122c0-25.207,16.421-44.687,43.925-52.107c7.607-2.055,16.32-3.141,25.193-3.141
		c26.965,0,50.466,9.505,59.878,24.212c5.869,9.167,2.835,21.198-6.765,26.821c-3.237,1.896-6.949,2.902-10.732,2.902
		c-7.086,0.002-13.561-3.392-17.344-9.082c-2.362-2.418-13.156-5.853-25.124-5.853c-6.079,0-11.622,0.852-16.476,2.53
		c-10.127,3.503-11.523,8.662-11.523,13.717c0,5.176,18.502,9.327,30.746,12.073c24.976,5.601,62.719,14.068,62.719,50.509
		c0,25.063-16.58,44.496-44.353,51.988C292.586,461.725,283.447,462.865,274.139,462.869L274.139,462.869z"/>
</g>
</svg>
